<svg xmlns="http://www.w3.org/2000/svg" xmlns:xlink="http://www.w3.org/1999/xlink" viewBox="0 0 97.83224064708416 97.83224064708416" height="97.83224064708416" width="97.83224064708416" data-background-color="#f9c784" preserveAspectRatio="xMidYMid meet" id="tight-bounds"><g><svg/></g><g><svg viewBox="0 0 97.83224064708416 97.83224064708416" height="97.83224064708416" width="97.83224064708416"><g><path d="M0 48.916c0-27.016 21.9-48.916 48.916-48.916 27.016 0 48.916 21.9 48.916 48.916 0 27.016-21.9 48.916-48.916 48.916-27.016 0-48.916-21.9-48.916-48.916zM48.916 94.119c24.965 0 45.203-20.238 45.203-45.203 0-24.965-20.238-45.203-45.203-45.203-24.965 0-45.203 20.238-45.203 45.203 0 24.965 20.238 45.203 45.203 45.203z" data-fill-palette-color="tertiary" fill="#ffffff" stroke="transparent"/><ellipse rx="46.9594755106004" ry="46.9594755106004" cx="48.91612032354208" cy="48.91612032354208" fill="#ffffff" stroke="transparent" stroke-width="0" fill-opacity="1" data-fill-palette-color="tertiary"/></g><g transform="matrix(1,0,0,1,23.475393915029343,28.331010584691196)"><svg viewBox="0 0 50.881452817025476 41.17021947770177" height="41.17021947770177" width="50.881452817025476"><g><svg viewBox="0 0 50.881452817025476 41.17021947770177" height="41.17021947770177" width="50.881452817025476"><g><svg viewBox="0 0 50.881452817025476 41.17021947770177" height="41.17021947770177" width="50.881452817025476"><g id="textblocktransform"><svg viewBox="0 0 50.881452817025476 41.17021947770177" height="41.17021947770177" width="50.881452817025476" id="textblock"><g><svg viewBox="0 0 50.881452817025476 41.17021947770177" height="41.17021947770177" width="50.881452817025476"><g><svg viewBox="0 0 50.881452817025476 41.17021947770177" height="41.17021947770177" width="50.881452817025476"><g><svg xmlns="http://www.w3.org/2000/svg" xmlns:xlink="http://www.w3.org/1999/xlink" version="1.1" x="0" y="0" viewBox="22.041000366210938 31.542999267578125 100 80.91400146484375" enable-background="new 0 0 144.083 144" xml:space="preserve" height="41.17021947770177" width="50.881452817025476" class="icon-icon-0" data-fill-palette-color="quaternary" id="icon-0" fill="#000000"><path d="M122.03 94.193C121.93 93.06 119.044 66.454 72.041 66.454 25.137 66.454 22.158 93.051 22.054 94.183L22.041 94.457C22.041 112.457 38.891 112.457 50.041 112.457H94.041C105.191 112.457 122.041 112.457 122.041 94.457zM94.042 106.457H50.042C34.915 106.457 28.119 104.744 28.042 94.631 28.257 93.068 30.688 80.059 51.578 74.727L47.878 86.843A3 3 0 0 0 50.748 90.72 3 3 0 0 0 53.616 88.595L58.257 73.396C62.052 72.836 66.331 72.506 71.136 72.469L66.747 86.843A3 3 0 0 0 69.617 90.72 3 3 0 0 0 72.485 88.595L77.333 72.719C77.345 72.678 77.347 72.636 77.356 72.594 81.93 72.818 85.967 73.323 89.526 74.042L85.62 86.843A2.999 2.999 0 1 0 91.358 88.595L95.35 75.518C113.756 81.269 115.86 93.243 116.039 94.62 115.969 104.743 109.174 106.457 94.042 106.457" fill="#000000" data-fill-palette-color="quaternary"/><path d="M55.838 55.834H61.389C68.053 47.738 54.727 39.641 61.389 31.543H55.838C49.174 39.641 62.502 47.738 55.838 55.834" fill="#000000" data-fill-palette-color="quaternary"/><path d="M69.264 55.834H74.817C81.481 47.738 68.152 39.641 74.817 31.543H69.264C62.6 39.641 75.928 47.738 69.264 55.834" fill="#000000" data-fill-palette-color="quaternary"/><path d="M82.692 55.834H88.245C94.909 47.738 81.581 39.641 88.245 31.543H82.692C76.028 39.641 89.356 47.738 82.692 55.834" fill="#000000" data-fill-palette-color="quaternary"/></svg></g></svg></g></svg></g></svg></g></svg></g><g/></svg></g></svg></g></svg></g><defs/></svg>